# xmcd CD database file
#
# Track frame offsets:
#	4000
#	11975
#	33330
#	54387
#	72645
#	91857
#	112180
#	135395
#	154912
#	174620
#	186827
#
# Disc length: 2612 seconds
#
# Revision: 1
# Processed by: cddbd v1.5.2PL0 Copyright (c) Steve Scherf et al.
# Submitted via: CDex 1.70beta3
#
DISCID=9e09ff0b
DTITLE=田村ゆかり - 天使は瞳の中に
DYEAR=2001
DGENRE=Vocal
TTITLE0=プロローグ～lalala･･･
TTITLE1=summer melody -album version-
TTITLE2=まっすぐな心
TTITLE3=春色の風、今も･･･。
TTITLE4=in the Oak wood
TTITLE5=スマイル スマイル
TTITLE6=天使じゃなくても
TTITLE7=あの夏を忘れない
TTITLE8=A Day Of Little Girl ～姫とウサギとおしゃべりこねこ～ -album version-
TTITLE9=青空にあいたい -album version-
TTITLE10=エピローグ
EXTD=YEAR: 2001
EXTT0=
EXTT1=
EXTT2=
EXTT3=
EXTT4=
EXTT5=
EXTT6=
EXTT7=
EXTT8=
EXTT9=
EXTT10=
PLAYORDER=
